<svg width="1200" height="675" viewBox="0 0 1200 675" fill="none" xmlns="http://www.w3.org/2000/svg">
  <defs>
    <linearGradient id="bg" x1="0" y1="0" x2="1" y2="1">
      <stop offset="0%" stop-color="#233a6b" />
      <stop offset="100%" stop-color="#1a2b55" />
    </linearGradient>
  </defs>
  <rect width="1200" height="675" fill="url(#bg)" />
  <g opacity="0.35" stroke="#9fb4e8" stroke-width="1">
    <path d="M80 120H1120" />
    <path d="M80 260H1120" />
    <path d="M80 400H1120" />
    <path d="M80 540H1120" />
    <path d="M180 60V620" />
    <path d="M360 60V620" />
    <path d="M540 60V620" />
    <path d="M720 60V620" />
    <path d="M900 60V620" />
  </g>
  <g stroke="#e8f0ff" stroke-width="3" opacity="0.8">
    <rect x="160" y="160" width="420" height="240" rx="14" />
    <rect x="640" y="160" width="400" height="140" rx="14" />
    <rect x="640" y="320" width="300" height="160" rx="14" />
  </g>
  <g fill="#e8f0ff" opacity="0.85">
    <circle cx="240" cy="210" r="8" />
    <circle cx="280" cy="210" r="8" />
    <circle cx="320" cy="210" r="8" />
  </g>
  <text x="160" y="520" fill="#e8f0ff" font-family="'Plus Jakarta Sans', Arial, sans-serif" font-size="26" letter-spacing="4">STRUCTURAL PLAN</text>
</svg>
